HIERARCHY
ROOT Hips
{
	OFFSET -0.001795 -0.223333 0.028219
	CHANNELS 6 Xposition Yposition Zposition Zrotation Yrotation Xrotation 
	JOINT LeftUpLeg
	{
		OFFSET 0.069520 -0.091406 -0.006815
		CHANNELS 3 Zrotation Yrotation Xrotation
		JOINT LeftLeg
		{
			OFFSET 0.034277 -0.375199 -0.004496
			CHANNELS 3 Zrotation Yrotation Xrotation
			JOINT LeftFoot
			{
				OFFSET -0.013596 -0.397961 -0.043693
				CHANNELS 3 Zrotation Yrotation Xrotation
				JOINT LeftToe
				{
					OFFSET 0.026358 -0.055791 0.119288
					CHANNELS 3 Zrotation Yrotation Xrotation
					End Site
					{
						OFFSET 0.000000 0.000000 0.000000
					}
				}
			}
		}
	}
	JOINT RightUpLeg
	{
		OFFSET -0.067670 -0.090522 -0.004320
		CHANNELS 3 Zrotation Yrotation Xrotation
		JOINT RightLeg
		{
			OFFSET -0.038290 -0.382569 -0.008850
			CHANNELS 3 Zrotation Yrotation Xrotation
			JOINT RightFoot
			{
				OFFSET 0.015774 -0.398415 -0.042312
				CHANNELS 3 Zrotation Yrotation Xrotation
				JOINT RightToe
				{
					OFFSET -0.025372 -0.048144 0.123348
					CHANNELS 3 Zrotation Yrotation Xrotation
					End Site
					{
						OFFSET 0.000000 0.000000 0.000000
					}
				}
			}
		}
	}
	JOINT Spine
	{
		OFFSET -0.002533 0.108963 -0.026696
		CHANNELS 3 Zrotation Yrotation Xrotation
		JOINT Spine1
		{
			OFFSET 0.005487 0.135180 0.001092
			CHANNELS 3 Zrotation Yrotation Xrotation
			JOINT Spine2
			{
				OFFSET 0.001457 0.052922 0.025425
				CHANNELS 3 Zrotation Yrotation Xrotation
				JOINT Neck
				{
					OFFSET -0.002778 0.213870 -0.042857
					CHANNELS 3 Zrotation Yrotation Xrotation
					JOINT Head
					{
						OFFSET 0.005152 0.064970 0.051349
						CHANNELS 3 Zrotation Yrotation Xrotation
						End Site
						{
							OFFSET 0.000000 0.000000 0.000000
						}
					}
				}
				JOINT LeftShoulder
				{
					OFFSET 0.078845 0.121749 -0.034090
					CHANNELS 3 Zrotation Yrotation Xrotation
					JOINT LeftArm
					{
						OFFSET 0.090977 0.030469 -0.008868
						CHANNELS 3 Zrotation Yrotation Xrotation
						JOINT LeftForeArm
						{
							OFFSET 0.259612 -0.012772 -0.027456
							CHANNELS 3 Zrotation Yrotation Xrotation
							JOINT LeftHand
							{
								OFFSET 0.249234 0.008986 -0.001171
								CHANNELS 3 Zrotation Yrotation Xrotation
								End Site
								{
									OFFSET 0.000000 0.000000 0.000000
								}
							}
						}
					}
				}
				JOINT RightShoulder
				{
					OFFSET -0.081759 0.118833 -0.038615
					CHANNELS 3 Zrotation Yrotation Xrotation
					JOINT RightArm
					{
						OFFSET -0.096012 0.032551 -0.009143
						CHANNELS 3 Zrotation Yrotation Xrotation
						JOINT RightForeArm
						{
							OFFSET -0.253742 -0.013329 -0.021401
							CHANNELS 3 Zrotation Yrotation Xrotation
							JOINT RightHand
							{
								OFFSET -0.255298 0.007772 -0.005559
								CHANNELS 3 Zrotation Yrotation Xrotation
								End Site
								{
									OFFSET 0.000000 0.000000 0.000000
								}
							}
						}
					}
				}
			}
		}
	}
}
MOTION
Frames: 13
Frame Time: 0.050000
0.000000 0.941225 0.000000 -0.108458 -3.509287 6.704866 5.963884 -0.270766 -3.649608 -2.948440 0.347362 -1.149449 1.679766 7.222339 13.271787 0.000000 0.000000 0.000000 -3.682014 0.488271 -4.702913 -7.228068 0.059040 -6.450316 -2.452919 -11.657706 19.102646 0.000000 0.000000 0.000000 5.271796 0.275223 -4.824409 -2.816622 1.280381 -3.807432 -4.012205 4.781967 2.541945 4.964603 -2.533379 -8.550675 0.000000 0.000000 0.000000 -16.384867 1.187201 -2.980990 -54.486363 -5.680320 -3.633846 -7.787060 -15.101605 1.473539 0.000000 0.000000 0.000000 13.913097 -7.989175 -4.613322 62.803517 2.868105 -4.101184 9.119520 20.116279 2.240563 0.000000 0.000000 0.000000 
0.000102 0.940714 0.000502 -0.216602 -4.352467 7.579477 5.813918 -0.254976 -3.124128 -2.687326 0.347463 -3.433719 2.046274 7.785524 13.692268 0.000000 0.000000 0.000000 -3.769528 0.591179 -6.000437 -7.007277 0.073448 -6.107917 -2.108341 -11.199563 18.823203 0.000000 0.000000 0.000000 6.449197 0.336458 -5.367139 -3.645645 1.620851 -4.089962 -4.867597 5.294791 1.863515 4.648559 -2.226272 -8.957987 0.000000 0.000000 0.000000 -17.468422 2.000409 -3.644942 -53.159843 -5.726581 -3.405867 -8.388417 -14.680337 1.494802 0.000000 0.000000 0.000000 13.585235 -9.264830 -5.170254 64.014650 1.624929 -4.720410 9.481992 19.988765 2.285601 0.000000 0.000000 0.000000 
0.000171 0.940529 0.000699 0.209117 -4.054161 7.412793 5.392418 -0.281456 -3.637699 -2.703453 0.335594 -2.344116 1.928484 7.593578 13.483048 0.000000 0.000000 0.000000 -4.008898 0.601684 -6.218293 -7.407239 0.178563 -5.281850 -2.355027 -11.484639 18.518810 0.000000 0.000000 0.000000 6.112969 0.284221 -4.892907 -3.374857 1.481620 -5.510885 -5.182647 4.683421 2.603303 3.953876 -1.826684 -8.696100 0.000000 0.000000 0.000000 -17.453821 1.799377 -3.422147 -53.205679 -5.245640 -3.710582 -7.849530 -14.226487 1.401230 0.000000 0.000000 0.000000 14.603357 -8.697412 -5.095185 62.920282 1.286628 -4.978485 9.315851 20.330858 2.293738 0.000000 0.000000 0.000000 
0.000112 0.940560 0.000883 0.314913 -3.806332 7.940590 5.624508 -0.300116 -3.912979 -3.245975 0.389319 -2.959910 1.748716 7.389718 13.739098 0.000000 0.000000 0.000000 -4.199007 0.650459 -6.911998 -7.268320 0.204717 -4.946067 -2.540172 -11.740541 18.520045 0.000000 0.000000 0.000000 6.257639 0.304158 -5.199254 -3.713541 1.635017 -4.938414 -5.184106 3.905123 1.188811 3.360233 -1.584199 -7.611305 0.000000 0.000000 0.000000 -17.409455 2.557276 -3.713217 -53.658755 -5.979690 -3.293079 -6.559703 -13.293066 1.166739 0.000000 0.000000 0.000000 13.416364 -9.103779 -5.221377 63.457696 0.640104 -5.211310 10.560242 20.619767 2.494987 0.000000 0.000000 0.000000 
0.000001 0.940993 0.000973 0.568997 -3.568135 7.819227 4.991273 -0.319500 -4.133699 -2.556549 0.319545 -2.434682 1.641576 7.256412 13.756830 0.000000 0.000000 0.000000 -4.301704 0.643578 -6.873165 -7.540217 0.249549 -4.685402 -2.668524 -11.917850 18.574831 0.000000 0.000000 0.000000 6.048980 0.277580 -4.951643 -3.452041 1.529189 -4.908633 -5.499629 3.789026 1.143111 3.040467 -1.287744 -8.150622 0.000000 0.000000 0.000000 -17.444651 2.255921 -3.589918 -53.612622 -6.513456 -3.044324 -6.718429 -12.809525 1.139648 0.000000 0.000000 0.000000 13.154906 -9.454619 -5.335275 63.619189 0.490590 -5.283238 10.642724 20.657683 2.518514 0.000000 0.000000 0.000000 
-0.000140 0.941252 0.001072 0.774416 -3.363678 8.156581 4.947198 -0.337681 -4.376974 -2.807111 0.344640 -2.745435 1.480959 7.085750 14.019208 0.000000 0.000000 0.000000 -4.371280 0.651548 -6.979606 -7.796951 0.225103 -5.066396 -2.758060 -12.074124 18.832079 0.000000 0.000000 0.000000 5.982742 0.290045 -5.171311 -3.502490 1.548830 -5.048191 -5.559365 3.485363 1.014344 3.055138 -1.352141 -7.792000 0.000000 0.000000 0.000000 -17.784113 2.641569 -3.810414 -53.385664 -6.734065 -2.912854 -6.449077 -12.312896 1.069657 0.000000 0.000000 0.000000 12.730572 -9.612112 -5.367347 64.059934 0.158383 -5.482074 10.718480 20.552076 2.505252 0.000000 0.000000 0.000000 
-0.000285 0.941483 0.001071 0.845482 -3.098870 8.188986 4.775731 -0.350014 -4.516742 -2.565003 0.319903 -2.646306 1.349284 6.919277 14.051024 0.000000 0.000000 0.000000 -4.252390 0.643979 -6.876659 -8.100805 0.229556 -5.202195 -2.868108 -12.238417 19.012693 0.000000 0.000000 0.000000 5.945522 0.281214 -5.114346 -3.484724 1.547170 -4.888123 -5.545445 3.053129 0.831623 3.059090 -1.312888 -8.231018 0.000000 0.000000 0.000000 -17.920168 2.692308 -3.804048 -53.385492 -6.653646 -2.933382 -6.424315 -12.153971 1.057473 0.000000 0.000000 0.000000 12.568132 -9.600857 -5.373757 64.166132 -0.125992 -5.645453 10.888009 20.778031 2.549603 0.000000 0.000000 0.000000 
-0.000411 0.941669 0.001026 0.792152 -2.756346 8.457749 4.751896 -0.378820 -4.976177 -2.320987 0.293142 -2.452337 1.214516 6.747083 14.038974 0.000000 0.000000 0.000000 -4.078794 0.653410 -6.995054 -8.257136 0.222015 -5.365743 -3.019534 -12.464399 19.255101 0.000000 0.000000 0.000000 5.991900 0.280354 -5.181933 -3.392460 1.512417 -4.780534 -5.656437 2.924160 0.522878 3.335761 -1.536823 -7.879254 0.000000 0.000000 0.000000 -17.855072 2.591050 -3.773243 -53.256801 -6.777023 -2.832766 -6.451654 -11.950250 1.038779 0.000000 0.000000 0.000000 12.581278 -10.016061 -5.564155 64.268360 -0.484393 -5.799651 11.030114 20.792001 2.576669 0.000000 0.000000 0.000000 
-0.000582 0.941940 0.000936 0.820536 -2.624229 8.466053 4.610312 -0.398089 -5.286250 -2.075072 0.262483 -1.973724 1.172318 6.695267 14.023853 0.000000 0.000000 0.000000 -4.054353 0.639048 -6.786973 -8.315143 0.187974 -5.710220 -3.050765 -12.522994 19.452693 0.000000 0.000000 0.000000 6.022831 0.270982 -5.099125 -3.323091 1.483372 -4.865390 -5.673951 2.918206 0.495219 3.543005 -1.667850 -7.928113 0.000000 0.000000 0.000000 -17.561100 2.490432 -3.686461 -53.301090 -6.854245 -2.801633 -6.583327 -11.848933 1.041909 0.000000 0.000000 0.000000 12.657291 -10.203395 -5.658126 64.027731 -0.666486 -5.865827 11.060618 20.753476 2.579249 0.000000 0.000000 0.000000 
-0.000798 0.942245 0.000890 0.857436 -2.514910 8.475801 4.599535 -0.411820 -5.534917 -2.075871 0.256240 -1.598394 1.118076 6.636116 14.071046 0.000000 0.000000 0.000000 -4.082931 0.630044 -6.662950 -8.292537 0.165304 -5.911054 -3.083913 -12.578941 19.598288 0.000000 0.000000 0.000000 6.121462 0.264908 -5.042656 -3.404066 1.519641 -4.767630 -5.704565 3.037442 0.360646 3.890748 -1.904765 -7.848711 0.000000 0.000000 0.000000 -17.265622 2.312118 -3.589322 -53.313396 -7.074892 -2.692028 -6.607723 -11.680325 1.025779 0.000000 0.000000 0.000000 12.773403 -10.392495 -5.746013 63.989420 -0.851088 -5.932277 10.821972 20.770598 2.549048 0.000000 0.000000 0.000000 
-0.000994 0.942417 0.000903 0.924300 -2.319653 8.526525 4.558444 -0.417670 -5.587812 -2.065385 0.255516 -1.667385 0.999386 6.496840 14.156214 0.000000 0.000000 0.000000 -4.137438 0.621511 -6.551270 -8.279385 0.141939 -6.123849 -3.171716 -12.701421 19.727706 0.000000 0.000000 0.000000 6.192680 0.263909 -5.053599 -3.356750 1.503361 -4.649071 -5.820886 3.077206 0.268354 4.044703 -1.996300 -7.869491 0.000000 0.000000 0.000000 -17.153372 2.144293 -3.526172 -53.185911 -7.204846 -2.613232 -6.503516 -12.050075 1.044417 0.000000 0.000000 0.000000 12.799469 -10.425607 -5.745506 64.002545 -0.859487 -5.910530 10.365264 20.562148 2.450501 0.000000 0.000000 0.000000 
-0.001138 0.942482 0.000919 0.953584 -2.235579 8.586005 4.722785 -0.421420 -5.707304 -2.372124 0.284045 -1.600776 0.941816 6.429579 14.208264 0.000000 0.000000 0.000000 -4.077537 0.617545 -6.483212 -8.418373 0.126537 -6.323746 -3.198181 -12.745546 19.837289 0.000000 0.000000 0.000000 6.344216 0.266906 -5.092148 -3.401403 1.526848 -4.358230 -5.763349 3.224880 -0.020623 4.532013 -2.323560 -7.816870 0.000000 0.000000 0.000000 -17.130147 2.133614 -3.565108 -53.214600 -7.363092 -2.511795 -6.292691 -12.341620 1.042663 0.000000 0.000000 0.000000 12.669919 -10.619279 -5.795239 63.982026 -0.959978 -5.909399 10.065264 20.601641 2.410913 0.000000 0.000000 0.000000 
-0.001234 0.942571 0.000937 0.851264 -2.030281 8.651084 4.873807 -0.420439 -5.706643 -2.382426 0.286231 -1.773438 0.839593 6.298718 14.223633 0.000000 0.000000 0.000000 -3.934007 0.616541 -6.466740 -8.433896 0.121481 -6.385146 -3.285403 -12.865271 19.949219 0.000000 0.000000 0.000000 6.482022 0.266260 -5.104056 -3.366829 1.517169 -4.113512 -5.759007 3.398688 -0.344976 4.884890 -2.542385 -7.836808 0.000000 0.000000 0.000000 -17.184492 2.025594 -3.590332 -53.035775 -7.572202 -2.370171 -6.114988 -12.808536 1.055918 0.000000 0.000000 0.000000 12.896337 -10.845863 -5.910806 63.708046 -1.115582 -5.912128 10.001232 20.503975 2.395630 0.000000 0.000000 0.000000 
